<?xml version="1.0" standalone="no"?>
<!DOCTYPE svg PUBLIC "-//W3C//DTD SVG 20010904//EN"
 "http://www.w3.org/TR/2001/REC-SVG-20010904/DTD/svg10.dtd">
<svg version="1.0" xmlns="http://www.w3.org/2000/svg"
 width="171.000000pt" height="109.000000pt" viewBox="0 0 171.000000 109.000000"
 preserveAspectRatio="xMidYMid meet">

<g transform="translate(0.000000,109.000000) scale(0.100000,-0.100000)"
fill="#000000" stroke="none">
<path d="M445 1061 c-178 -83 -178 -334 -1 -417 89 -42 181 -28 252 38 82 76
98 197 38 294 -57 92 -189 131 -289 85z"/>
<path d="M1049 1052 c-139 -72 -162 -266 -44 -370 98 -86 225 -83 315 8 94 94
94 237 -1 327 -74 70 -178 83 -270 35z"/>
<path d="M470 464 c-251 -38 -416 -114 -456 -211 -18 -42 -18 -192 0 -215 27
-36 61 -38 525 -38 472 0 511 3 531 40 15 29 12 187 -4 218 -48 91 -203 166
-406 197 -92 14 -138 16 -190 9z"/>
<path d="M1098 464 c-3 -3 16 -27 43 -54 79 -79 93 -120 94 -278 l0 -132 198
0 c206 0 246 7 261 45 12 33 6 185 -8 214 -34 64 -123 120 -263 164 -107 34
-307 59 -325 41z"/>
</g>
</svg>
