<?xml version="1.0" standalone="no"?>
<!DOCTYPE svg PUBLIC "-//W3C//DTD SVG 20010904//EN"
 "http://www.w3.org/TR/2001/REC-SVG-20010904/DTD/svg10.dtd">
<svg version="1.0" xmlns="http://www.w3.org/2000/svg"
 width="130.000000pt" height="130.000000pt" viewBox="0 0 130.000000 130.000000"
 preserveAspectRatio="xMidYMid meet">

<g transform="translate(0.000000,130.000000) scale(0.100000,-0.100000)"
fill="#000000" stroke="none">
<path d="M522 1220 c-116 -59 -176 -154 -176 -280 0 -124 58 -216 170 -271
175 -87 373 4 429 196 32 110 -1 222 -91 304 -96 88 -220 107 -332 51z" fill="#808080"/>
<path d="M460 460 c-234 -53 -377 -134 -416 -235 -11 -31 -15 -63 -12 -106 8
-107 -41 -99 618 -99 659 0 610 -8 618 99 6 82 -16 137 -74 191 -143 131 -497
203 -734 150z" fill="#808080"/>
</g>
</svg>
