<?xml version="1.0" standalone="no"?>
<!DOCTYPE svg PUBLIC "-//W3C//DTD SVG 20010904//EN"
 "http://www.w3.org/TR/2001/REC-SVG-20010904/DTD/svg10.dtd">
<svg version="1.0" xmlns="http://www.w3.org/2000/svg"
 width="2213.000000pt" height="1758.000000pt" viewBox="0 0 2213.000000 1758.000000"
 preserveAspectRatio="xMidYMid meet">

<g transform="translate(0.000000,1758.000000) scale(0.100000,-0.100000)"
fill="#000000" stroke="none">
<path d="M4550 17146 c0 -11 -31 -14 -145 -18 -93 -3 -149 -8 -157 -16 -7 -7
-29 -12 -49 -12 -21 0 -41 -4 -44 -10 -3 -5 -30 -10 -58 -10 -30 0 -60 -7 -71
-15 -11 -8 -37 -15 -57 -15 -21 0 -41 -4 -44 -10 -3 -5 -23 -10 -43 -10 -20 0
-46 -7 -56 -15 -11 -8 -30 -15 -42 -15 -13 0 -26 -4 -29 -10 -3 -5 -18 -10
-33 -10 -15 0 -36 -7 -46 -15 -11 -8 -30 -15 -42 -15 -13 0 -26 -4 -29 -10 -3
-5 -18 -10 -33 -10 -15 0 -36 -7 -46 -15 -11 -8 -30 -15 -42 -15 -13 0 -26 -4
-29 -10 -3 -5 -14 -10 -24 -10 -10 0 -24 -7 -31 -15 -7 -8 -21 -15 -31 -15
-11 0 -19 -4 -19 -10 0 -5 -8 -10 -19 -10 -10 0 -24 -7 -31 -15 -7 -8 -22 -15
-34 -15 -24 0 -189 -81 -217 -105 -8 -8 -20 -15 -26 -15 -6 0 -16 -7 -23 -15
-7 -8 -21 -15 -31 -15 -11 0 -19 -4 -19 -10 0 -5 -8 -10 -19 -10 -10 0 -24 -7
-31 -15 -7 -8 -18 -15 -24 -15 -7 0 -21 -9 -33 -19 -11 -11 -40 -28 -64 -39
-25 -11 -53 -30 -63 -41 -11 -12 -25 -21 -33 -21 -7 0 -33 -18 -57 -40 -24
-22 -48 -40 -53 -40 -5 0 -18 -9 -28 -20 -10 -11 -27 -22 -38 -26 -11 -4 -58
-43 -105 -88 -46 -44 -90 -83 -97 -86 -15 -6 -158 -145 -362 -352 -97 -98
-143 -152 -143 -167 0 -12 -11 -34 -25 -49 -14 -15 -25 -32 -25 -37 0 -6 -16
-26 -35 -45 -19 -19 -35 -39 -35 -45 0 -7 -11 -25 -25 -41 -14 -16 -25 -34
-25 -40 0 -6 -11 -21 -25 -34 -14 -13 -25 -29 -25 -36 0 -6 -7 -17 -15 -24 -8
-7 -15 -20 -15 -29 0 -10 -11 -28 -25 -41 -14 -13 -25 -30 -25 -37 0 -16 -19
-50 -43 -79 -27 -32 -127 -236 -127 -260 0 -12 -7 -27 -15 -34 -8 -7 -15 -21
-15 -31 0 -11 -4 -19 -10 -19 -5 0 -10 -8 -10 -19 0 -10 -7 -24 -15 -31 -8 -7
-15 -25 -15 -41 0 -15 -4 -31 -10 -34 -5 -3 -10 -19 -10 -34 0 -16 -7 -34 -15
-41 -8 -7 -15 -21 -15 -31 0 -10 -4 -21 -10 -24 -5 -3 -10 -16 -10 -29 0 -12
-7 -31 -15 -42 -8 -10 -15 -36 -15 -56 0 -20 -4 -40 -10 -43 -5 -3 -10 -19
-10 -34 0 -16 -7 -34 -15 -41 -8 -7 -15 -25 -15 -41 0 -15 -4 -31 -10 -34 -5
-3 -10 -30 -10 -59 0 -35 -5 -58 -15 -66 -10 -8 -15 -31 -15 -66 0 -29 -4 -56
-10 -59 -5 -3 -10 -34 -10 -69 0 -39 -5 -69 -15 -82 -10 -13 -14 -45 -15 -106
0 -48 -5 -90 -10 -93 -6 -3 -10 -48 -10 -98 0 -51 -7 -142 -15 -202 -14 -97
-15 -650 -12 -4775 2 -4190 4 -4671 18 -4725 36 -135 61 -221 70 -230 5 -5 9
-32 9 -61 0 -34 5 -56 15 -64 10 -8 15 -31 15 -66 0 -29 5 -56 10 -59 6 -3 10
-19 10 -34 0 -16 7 -34 15 -41 9 -7 15 -29 15 -51 0 -21 5 -41 10 -44 6 -3 10
-22 10 -41 0 -19 11 -55 25 -80 14 -25 25 -55 25 -67 0 -12 7 -31 15 -41 8
-11 15 -30 15 -42 0 -13 5 -26 10 -29 6 -3 10 -14 10 -24 0 -10 7 -24 15 -31
8 -7 15 -22 15 -34 0 -26 102 -231 130 -261 11 -12 20 -30 20 -42 0 -25 23
-72 50 -100 11 -12 20 -29 20 -37 0 -8 4 -18 10 -21 5 -3 21 -30 34 -58 13
-29 31 -59 40 -66 9 -7 16 -19 16 -25 0 -7 11 -23 25 -36 14 -13 25 -29 25
-36 0 -7 11 -26 25 -42 14 -17 25 -34 25 -39 0 -5 11 -20 25 -33 14 -13 25
-28 25 -34 0 -6 34 -48 75 -93 41 -45 75 -86 75 -91 0 -15 459 -472 474 -472
6 0 34 -22 61 -50 27 -27 54 -50 59 -50 5 0 31 -18 57 -40 26 -22 52 -40 57
-40 5 0 17 -9 27 -20 10 -11 27 -22 38 -26 11 -4 32 -17 46 -30 14 -13 31 -24
37 -24 6 0 18 -7 25 -16 7 -9 36 -27 65 -40 28 -13 56 -30 63 -38 7 -8 47 -32
89 -52 42 -21 79 -41 80 -46 2 -4 9 -8 14 -8 19 0 88 -33 88 -42 0 -4 6 -8 14
-8 8 0 45 -16 82 -35 37 -19 77 -35 89 -35 12 0 28 -7 35 -15 7 -8 21 -15 31
-15 11 0 19 -4 19 -10 0 -5 8 -10 18 -10 9 0 26 -7 36 -15 11 -8 27 -15 36
-15 9 0 40 -11 68 -25 29 -14 65 -25 81 -25 17 0 33 -4 36 -10 3 -5 18 -10 33
-10 15 0 36 -7 46 -15 11 -8 37 -15 57 -15 21 0 41 -4 44 -10 3 -5 23 -10 43
-10 20 0 46 -7 56 -15 11 -8 41 -15 67 -15 26 0 51 -4 54 -10 3 -6 41 -10 84
-10 58 0 82 -4 91 -15 9 -11 33 -15 92 -15 61 0 80 -3 84 -15 5 -13 771 -15
6805 -15 6037 0 6799 2 6799 15 0 12 16 15 88 15 62 0 94 4 108 15 11 8 41 15
71 15 28 0 55 5 58 10 3 6 30 10 59 10 35 0 58 5 66 15 7 9 29 15 51 15 21 0
41 5 44 10 3 5 23 10 44 10 20 0 46 7 57 15 10 8 31 15 46 15 15 0 30 5 33 10
3 6 19 10 34 10 16 0 34 7 41 15 7 8 25 15 41 15 15 0 31 5 34 10 3 6 16 10
29 10 12 0 31 7 42 15 10 8 28 15 40 15 12 0 51 16 88 35 37 19 73 35 79 35
15 0 209 98 217 109 3 4 48 29 101 54 52 26 105 56 117 67 11 11 27 20 35 20
7 0 24 11 37 25 13 14 28 25 34 25 6 0 23 11 38 25 15 14 33 25 41 25 7 0 24
11 37 25 13 14 28 25 34 25 6 0 31 18 56 40 25 22 50 40 55 40 6 0 33 23 60
50 27 28 55 50 62 50 16 0 473 456 473 472 0 6 21 35 48 64 70 79 152 181 152
192 0 5 9 17 20 27 11 10 22 27 26 38 4 11 17 32 30 46 13 14 24 30 24 34 0 5
11 22 25 39 14 16 25 36 25 44 0 8 5 14 10 14 6 0 10 8 10 17 0 9 9 26 20 38
28 30 230 435 230 461 0 12 7 27 15 34 8 7 15 21 15 31 0 10 5 21 10 24 5 3
10 16 10 29 0 12 7 31 15 42 8 10 15 31 15 46 0 15 5 30 10 33 6 3 10 16 10
29 0 12 7 31 15 42 8 10 15 33 15 51 0 18 11 49 25 69 14 21 25 51 25 70 0 18
5 36 10 39 6 3 10 28 10 54 0 26 7 56 15 67 8 11 15 41 15 71 0 28 4 55 10 58
5 3 10 35 10 69 0 44 5 67 15 76 11 9 15 35 15 106 0 51 4 96 10 99 7 4 10
355 10 1020 0 888 2 1015 15 1029 13 13 15 232 15 1848 0 1434 -3 1837 -12
1846 -10 10 -10 17 0 32 9 15 12 157 12 591 0 494 -2 572 -15 585 -13 14 -15
179 -15 1364 0 888 -3 1351 -10 1355 -6 3 -10 51 -10 108 -1 74 -5 107 -15
121 -10 13 -15 44 -15 92 0 40 -4 75 -8 78 -5 3 -12 40 -15 83 -6 73 -18 124
-38 165 -5 10 -9 28 -9 40 0 13 -7 32 -15 42 -8 11 -15 30 -15 42 0 13 -4 26
-10 29 -5 3 -10 18 -10 33 0 15 -7 36 -15 46 -8 11 -15 30 -15 42 0 13 -4 26
-10 29 -5 3 -10 18 -10 33 0 15 -7 36 -15 46 -8 11 -15 30 -15 42 0 13 -4 26
-10 29 -5 3 -10 14 -10 24 0 10 -7 24 -15 31 -8 7 -15 21 -15 31 0 11 -4 19
-10 19 -5 0 -10 10 -10 23 0 26 -150 330 -180 364 -11 13 -20 29 -20 36 0 8
-11 24 -25 37 -14 13 -25 32 -25 42 0 10 -4 18 -10 18 -5 0 -12 11 -16 24 -3
13 -17 34 -30 47 -13 12 -24 27 -24 33 0 6 -11 24 -25 40 -14 16 -25 34 -25
41 0 6 -16 26 -35 45 -19 19 -35 38 -35 44 0 5 -18 31 -40 57 -22 26 -40 51
-40 56 0 5 -23 31 -50 58 -28 27 -50 54 -50 60 0 15 -278 295 -293 295 -7 0
-53 41 -102 90 -49 50 -94 90 -100 90 -5 1 -35 23 -65 50 -30 28 -60 50 -66
50 -5 0 -25 16 -44 35 -19 19 -38 35 -43 35 -4 0 -23 11 -41 25 -18 14 -37 25
-43 25 -5 0 -20 11 -33 25 -13 14 -28 25 -33 25 -5 0 -32 18 -59 40 -28 22
-56 40 -63 40 -7 0 -19 7 -26 16 -7 9 -22 20 -34 25 -36 17 -65 36 -88 56 -25
23 -143 84 -150 77 -2 -2 -49 18 -103 46 -54 27 -111 50 -125 50 -15 0 -32 7
-39 15 -7 9 -20 13 -29 10 -10 -3 -26 2 -37 10 -10 8 -30 15 -44 15 -15 0 -31
5 -38 12 -6 6 -31 15 -57 20 -25 4 -65 12 -90 16 -26 5 -51 14 -57 20 -7 7
-24 12 -39 12 -15 0 -31 5 -34 10 -3 6 -23 10 -43 10 -20 1 -48 7 -62 15 -14
8 -39 14 -57 15 -17 0 -35 5 -38 10 -3 6 -39 10 -78 10 -43 1 -82 6 -97 15
-16 9 -55 14 -108 15 -64 0 -84 3 -88 15 -5 13 -765 15 -6755 15 -5718 0
-6749 -2 -6749 -14z m13305 -2459 c39 -5 74 -13 80 -18 5 -5 25 -9 45 -9 19 0
44 -7 54 -15 11 -8 30 -15 42 -15 13 0 26 -4 29 -10 3 -5 21 -10 38 -10 18 0
46 -9 62 -20 17 -11 62 -36 100 -55 39 -18 79 -43 89 -54 11 -12 26 -21 34
-21 8 0 34 -18 58 -40 24 -22 48 -40 53 -40 14 0 221 -209 221 -223 0 -7 18
-31 40 -52 22 -21 40 -47 40 -56 0 -10 5 -21 10 -24 16 -10 60 -82 60 -98 0
-7 11 -24 25 -37 15 -14 25 -35 25 -52 0 -15 4 -28 8 -28 11 0 42 -72 42 -97
0 -11 7 -26 16 -34 9 -7 14 -22 11 -36 -2 -13 2 -28 9 -34 8 -6 14 -30 14 -53
0 -23 5 -47 11 -53 6 -6 12 -45 14 -87 3 -42 9 -85 15 -96 6 -12 10 -145 10
-354 0 -212 4 -337 10 -341 13 -8 14 -8257 1 -8271 -5 -5 -11 -56 -14 -114 -3
-58 -10 -121 -16 -140 -6 -19 -11 -54 -11 -77 0 -23 -4 -45 -10 -48 -5 -3 -10
-22 -10 -41 0 -19 -11 -55 -25 -80 -14 -25 -25 -53 -25 -62 0 -10 -22 -62 -50
-116 -27 -54 -50 -104 -50 -111 0 -7 -11 -20 -25 -29 -14 -9 -25 -24 -25 -34
0 -10 -16 -33 -35 -52 -19 -19 -35 -40 -35 -46 0 -16 -250 -264 -266 -264 -11
0 -67 -57 -75 -77 -6 -13 -168 -93 -189 -93 -9 0 -23 -7 -30 -15 -7 -8 -21
-15 -31 -15 -10 0 -21 -5 -24 -10 -3 -6 -19 -10 -34 -10 -16 0 -34 -7 -42 -16
-7 -8 -21 -13 -30 -11 -10 3 -26 -1 -36 -9 -10 -7 -28 -14 -41 -14 -12 0 -30
-4 -40 -9 -32 -18 -146 -34 -312 -43 -246 -14 -1810 -21 -1835 -8 -14 7 -213
9 -625 5 -1222 -11 -10185 -16 -10205 -5 -11 5 -72 11 -135 13 -111 3 -223 19
-265 37 -11 5 -36 11 -55 13 -44 6 -87 21 -174 64 -37 18 -78 33 -90 33 -13 0
-31 9 -42 21 -10 11 -41 31 -69 44 -28 14 -64 38 -80 55 -16 16 -34 30 -40 30
-6 0 -33 22 -60 50 -26 27 -58 50 -69 52 -13 2 -22 12 -24 25 -2 11 -30 47
-63 78 -32 31 -59 62 -59 69 0 7 -11 23 -25 36 -14 13 -25 30 -25 37 0 8 -11
25 -24 38 -26 26 -56 80 -56 101 0 7 -12 21 -27 32 -20 15 -27 27 -25 49 1 20
-6 37 -23 53 -14 13 -25 35 -25 50 0 14 -4 30 -9 36 -12 12 -32 96 -38 159 -3
28 -10 56 -16 63 -5 7 -10 41 -11 75 0 34 -4 64 -8 67 -11 8 -10 9207 1 9254
5 21 14 43 20 49 6 6 11 29 11 52 0 23 6 50 14 60 8 11 12 25 9 32 -3 7 2 24
11 38 9 13 16 35 16 49 0 14 5 28 10 31 6 3 10 16 10 28 1 12 12 40 25 62 14
22 27 47 31 55 6 18 10 23 47 78 15 23 27 48 27 55 0 7 18 31 40 52 22 21 40
44 40 50 0 13 232 245 246 245 5 0 28 18 49 40 21 22 47 40 57 40 10 0 18 5
18 10 0 6 8 10 18 10 11 0 27 9 37 20 22 24 94 60 122 60 12 0 23 7 27 15 3 8
12 15 21 15 8 0 23 4 33 9 63 32 149 61 184 61 15 0 30 5 33 10 3 6 19 10 35
10 16 0 32 5 35 10 7 12 13083 9 13190 -3z" fill="#808080"/>
<path d="M13380 11865 c-8 -9 -29 -15 -56 -15 -23 0 -46 -4 -49 -10 -3 -5 -23
-10 -44 -10 -22 0 -44 -6 -51 -15 -7 -8 -20 -15 -29 -16 -9 0 -29 -9 -46 -20
-16 -10 -37 -22 -45 -25 -57 -23 -78 -36 -95 -54 -10 -11 -25 -20 -34 -20 -9
0 -151 -135 -316 -300 -164 -165 -302 -300 -305 -300 -9 0 -500 -490 -500
-499 0 -4 -63 -70 -140 -146 -77 -77 -140 -147 -140 -155 0 -9 -18 -34 -40
-55 -22 -21 -40 -44 -40 -49 0 -14 -51 -66 -64 -66 -6 0 -171 160 -366 355
-195 195 -359 355 -365 355 -5 0 -193 181 -417 403 -440 435 -517 507 -540
507 -8 0 -23 9 -33 20 -20 22 -71 50 -90 50 -7 0 -18 7 -25 15 -8 10 -31 15
-66 15 -29 0 -56 5 -59 10 -4 6 -85 10 -210 10 -125 0 -206 -4 -210 -10 -3 -5
-19 -10 -34 -10 -16 0 -34 -7 -41 -15 -7 -8 -20 -15 -29 -15 -10 0 -28 -11
-41 -25 -13 -14 -28 -25 -35 -25 -6 0 -33 -22 -60 -50 -27 -27 -57 -50 -66
-50 -18 0 -149 -133 -149 -151 0 -6 -11 -24 -25 -41 -14 -16 -25 -40 -25 -53
0 -13 -4 -27 -10 -30 -5 -3 -10 -19 -10 -34 0 -16 -7 -34 -15 -41 -10 -8 -15
-31 -15 -66 0 -29 -4 -56 -10 -59 -6 -4 -10 -60 -10 -135 0 -75 4 -131 10
-135 6 -3 10 -14 10 -24 0 -10 7 -24 15 -31 8 -7 15 -25 15 -41 0 -15 5 -31
10 -34 6 -3 10 -19 10 -34 0 -16 7 -34 15 -41 8 -7 15 -18 15 -24 0 -7 11 -23
25 -36 14 -13 25 -31 25 -40 0 -9 16 -31 35 -50 19 -19 35 -39 35 -45 0 -5 74
-84 165 -175 91 -91 165 -169 165 -175 0 -13 662 -675 675 -675 15 0 525 -513
525 -528 0 -14 -36 -52 -49 -52 -15 0 -701 -692 -701 -707 0 -7 -6 -13 -13
-13 -14 0 -491 -469 -634 -624 -46 -49 -83 -96 -83 -105 0 -9 -22 -39 -50 -66
-27 -27 -50 -54 -50 -60 0 -7 -11 -22 -25 -35 -14 -13 -25 -31 -26 -39 0 -9
-9 -29 -20 -46 -10 -16 -22 -37 -25 -45 -8 -20 -33 -72 -43 -90 -4 -8 -13 -25
-19 -37 -19 -36 -16 -402 3 -427 8 -11 15 -30 15 -42 0 -56 138 -264 175 -264
6 0 26 -16 45 -35 19 -19 39 -35 45 -35 6 0 29 -18 50 -40 21 -22 46 -40 55
-41 8 0 29 -9 45 -20 17 -10 37 -21 45 -25 8 -3 23 -10 32 -15 10 -5 28 -9 42
-9 13 0 29 -7 36 -15 7 -9 29 -15 51 -15 21 0 41 -4 44 -10 3 -5 37 -10 75
-10 38 0 72 5 75 10 3 6 37 10 74 10 49 0 72 4 81 15 7 8 25 15 41 15 15 0 31
5 34 10 3 6 19 10 35 10 16 0 31 4 35 9 6 12 64 41 78 41 6 0 21 10 33 21 24
22 52 40 90 58 12 5 93 82 182 170 88 89 166 161 172 161 15 0 120 107 120
122 0 13 886 898 898 898 6 0 50 41 100 90 49 50 96 90 103 90 18 0 184 -160
872 -842 326 -324 597 -588 602 -588 6 0 40 -29 75 -65 35 -36 72 -65 80 -65
9 0 27 -11 40 -25 13 -14 29 -25 35 -25 6 0 22 -11 35 -25 13 -14 29 -25 36
-25 7 0 34 -11 60 -25 45 -24 53 -25 239 -25 159 0 195 3 205 15 7 9 29 15 51
15 21 0 41 4 44 10 3 6 19 10 34 10 16 0 34 6 41 14 6 8 24 16 40 18 22 2 62
35 160 132 71 71 130 135 130 142 0 7 5 16 10 19 6 3 10 15 10 26 0 11 7 22
15 25 8 4 15 14 15 24 0 11 5 22 10 25 6 3 10 15 10 26 0 11 7 22 15 25 11 5
15 22 15 65 0 33 4 59 10 59 6 0 10 60 10 159 0 96 -4 162 -10 166 -5 3 -10
26 -10 49 0 27 -6 48 -15 56 -8 7 -15 25 -15 41 0 16 -4 29 -10 29 -5 0 -10 8
-10 18 0 10 -18 36 -40 57 -22 21 -40 46 -40 55 0 9 -11 27 -25 40 -14 13 -25
29 -25 35 0 6 -45 55 -100 110 -55 54 -100 103 -100 109 0 16 -113 126 -129
126 -14 0 -50 39 -51 55 0 14 -632 645 -645 645 -6 0 -86 73 -177 163 -207
202 -280 267 -300 267 -8 0 -23 8 -32 19 -16 18 -12 23 94 131 60 62 110 117
110 122 0 5 299 309 665 675 366 366 665 670 665 677 0 6 23 34 50 61 28 27
50 55 50 61 0 7 11 26 25 42 16 19 25 42 25 65 0 19 7 40 15 47 9 7 15 29 15
51 0 21 5 41 10 44 6 3 10 41 10 84 0 60 4 82 16 92 13 11 15 26 11 76 -4 34
-11 71 -17 82 -5 12 -14 30 -20 41 -5 11 -10 26 -10 34 0 8 -7 16 -15 20 -9 3
-15 19 -15 41 0 19 -4 35 -10 35 -5 0 -10 8 -10 19 0 10 -7 24 -15 31 -8 7
-15 19 -15 27 0 8 -11 24 -25 35 -14 11 -25 27 -25 36 0 9 -46 63 -102 119
-79 79 -109 103 -129 103 -15 0 -32 7 -39 15 -7 8 -21 15 -31 15 -11 0 -19 5
-19 10 0 6 -8 10 -19 10 -10 0 -24 7 -31 15 -8 9 -30 15 -56 15 -24 0 -44 5
-44 10 0 6 -35 10 -84 10 -62 0 -87 4 -96 15 -7 8 -23 15 -35 15 -12 0 -28 -7
-35 -15z" fill="#808080"/>
</g>
</svg>
