<?xml version="1.0" standalone="no"?>
<!DOCTYPE svg PUBLIC "-//W3C//DTD SVG 20010904//EN"
 "http://www.w3.org/TR/2001/REC-SVG-20010904/DTD/svg10.dtd">
<svg version="1.0" xmlns="http://www.w3.org/2000/svg"
 width="1052.000000pt" height="1052.000000pt" viewBox="0 0 1052.000000 1052.000000"
 preserveAspectRatio="xMidYMid meet">

<g transform="translate(0.000000,1052.000000) scale(0.100000,-0.100000)"
fill="#000000" stroke="none" >
<path d="M5000 10514 c-472 -56 -849 -194 -1220 -445 -844 -573 -1276 -1581
-1110 -2595 102 -627 443 -1209 944 -1614 204 -164 496 -329 745 -420 568
-206 1224 -206 1792 0 249 91 541 256 745 420 433 350 759 852 895 1378 163
634 85 1323 -214 1882 -353 663 -949 1135 -1666 1321 -225 58 -332 71 -616 74
-143 2 -276 1 -295 -1z m580 -1292 c268 -70 468 -187 657 -386 248 -258 375
-578 374 -936 0 -159 -18 -275 -66 -417 -118 -352 -358 -629 -690 -796 -186
-93 -387 -140 -600 -140 -658 0 -1224 477 -1340 1128 -21 120 -21 333 0 455
79 455 390 847 818 1027 189 79 322 103 552 99 162 -3 192 -7 295 -34z" fill="#808080"/>
<path d="M4820 5233 c-256 -30 -502 -75 -722 -134 -80 -21 -158 -43 -173 -49
-15 -6 -44 -13 -63 -16 -115 -18 -677 -264 -859 -375 -33 -21 -81 -48 -105
-60 -71 -36 -334 -216 -471 -322 -176 -137 -382 -323 -502 -453 -142 -154
-286 -320 -327 -379 -19 -27 -74 -104 -122 -169 -48 -65 -99 -140 -113 -165
-15 -25 -58 -98 -96 -161 -105 -177 -291 -572 -354 -755 -108 -311 -202 -717
-237 -1025 -22 -187 -22 -621 -1 -685 47 -137 197 -307 325 -368 116 -55 186
-70 310 -65 168 8 280 56 416 181 68 62 115 134 146 224 14 40 28 70 32 66 3
-3 6 161 6 365 0 205 4 380 9 390 5 9 23 78 41 152 39 167 136 459 196 592
198 440 509 861 872 1179 120 105 454 345 509 366 9 4 60 31 112 61 105 60
219 114 296 142 28 10 104 39 170 64 124 48 416 131 495 141 25 3 110 15 190
27 126 19 186 22 460 22 274 0 334 -3 460 -22 80 -12 165 -24 190 -27 79 -10
371 -93 495 -141 66 -25 143 -54 170 -64 77 -28 191 -82 296 -142 52 -30 103
-57 112 -61 24 -9 239 -155 344 -233 354 -265 683 -647 900 -1044 83 -151 141
-270 175 -355 45 -114 129 -382 159 -507 17 -73 35 -141 40 -150 5 -10 9 -185
9 -390 0 -204 3 -368 6 -365 4 4 18 -26 32 -66 31 -90 78 -162 146 -224 136
-125 248 -173 416 -181 124 -5 194 10 310 65 89 43 217 164 268 255 67 118 72
145 72 417 0 332 -29 572 -111 911 -31 130 -106 390 -142 495 -63 183 -249
578 -354 755 -38 63 -81 136 -96 161 -14 25 -65 100 -113 165 -48 65 -103 142
-122 169 -96 137 -389 454 -564 610 -381 341 -810 618 -1253 809 -165 72 -407
163 -447 170 -19 3 -48 10 -63 16 -53 20 -322 89 -450 114 -329 66 -363 69
-845 71 -245 2 -461 1 -480 -2z" fill="#808080"/>
</g>
</svg>
